<svg xmlns="http://www.w3.org/2000/svg" viewBox="0 0 220 220">
  <circle cx="110" cy="110" r="104" fill="#17222f"/>
  <circle cx="110" cy="110" r="90" fill="#d9e0e6" stroke="#f7fbff" stroke-width="4"/>
  <circle cx="110" cy="110" r="70" fill="#8f9ba7"/>

  <g>
    <path d="M96 43 105 40 116 85 108 112 96 102 90 68Z" fill="#f6f9fc" stroke="#b0bcc8" stroke-width="1.4"/>
    <path d="M124 43 115 40 104 85 112 112 124 102 130 68Z" fill="#f6f9fc" stroke="#b0bcc8" stroke-width="1.4"/>
    <path d="M101 53 106 52 112 84 108 98 102 92 98 69Z" fill="#b4c0cb"/>
    <path d="M119 53 114 52 108 84 112 98 118 92 122 69Z" fill="#b4c0cb"/>
  </g>
  <g transform="rotate(72 110 110)">
    <path d="M96 43 105 40 116 85 108 112 96 102 90 68Z" fill="#f6f9fc" stroke="#b0bcc8" stroke-width="1.4"/>
    <path d="M124 43 115 40 104 85 112 112 124 102 130 68Z" fill="#f6f9fc" stroke="#b0bcc8" stroke-width="1.4"/>
    <path d="M101 53 106 52 112 84 108 98 102 92 98 69Z" fill="#b4c0cb"/>
    <path d="M119 53 114 52 108 84 112 98 118 92 122 69Z" fill="#b4c0cb"/>
  </g>
  <g transform="rotate(144 110 110)">
    <path d="M96 43 105 40 116 85 108 112 96 102 90 68Z" fill="#f6f9fc" stroke="#b0bcc8" stroke-width="1.4"/>
    <path d="M124 43 115 40 104 85 112 112 124 102 130 68Z" fill="#f6f9fc" stroke="#b0bcc8" stroke-width="1.4"/>
    <path d="M101 53 106 52 112 84 108 98 102 92 98 69Z" fill="#b4c0cb"/>
    <path d="M119 53 114 52 108 84 112 98 118 92 122 69Z" fill="#b4c0cb"/>
  </g>
  <g transform="rotate(216 110 110)">
    <path d="M96 43 105 40 116 85 108 112 96 102 90 68Z" fill="#f6f9fc" stroke="#b0bcc8" stroke-width="1.4"/>
    <path d="M124 43 115 40 104 85 112 112 124 102 130 68Z" fill="#f6f9fc" stroke="#b0bcc8" stroke-width="1.4"/>
    <path d="M101 53 106 52 112 84 108 98 102 92 98 69Z" fill="#b4c0cb"/>
    <path d="M119 53 114 52 108 84 112 98 118 92 122 69Z" fill="#b4c0cb"/>
  </g>
  <g transform="rotate(288 110 110)">
    <path d="M96 43 105 40 116 85 108 112 96 102 90 68Z" fill="#f6f9fc" stroke="#b0bcc8" stroke-width="1.4"/>
    <path d="M124 43 115 40 104 85 112 112 124 102 130 68Z" fill="#f6f9fc" stroke="#b0bcc8" stroke-width="1.4"/>
    <path d="M101 53 106 52 112 84 108 98 102 92 98 69Z" fill="#b4c0cb"/>
    <path d="M119 53 114 52 108 84 112 98 118 92 122 69Z" fill="#b4c0cb"/>
  </g>

  <circle cx="110" cy="110" r="28" fill="#c6d0d8"/>
  <circle cx="110" cy="110" r="11" fill="#f6fbff"/>
  <circle cx="110" cy="89" r="4.2" fill="#f6fbff"/>
  <circle cx="128" cy="100" r="4.2" fill="#f6fbff"/>
  <circle cx="128" cy="120" r="4.2" fill="#f6fbff"/>
  <circle cx="110" cy="131" r="4.2" fill="#f6fbff"/>
  <circle cx="92" cy="120" r="4.2" fill="#f6fbff"/>
  <circle cx="92" cy="100" r="4.2" fill="#f6fbff"/>
</svg>
